<svg width="82" height="24" viewBox="0 0 82 24" fill="none" xmlns="http://www.w3.org/2000/svg">
<path d="M78.673 23.7143H3.32481C1.71921 23.7714 0.342987 22.4571 0.285645 20.8571V20.8V3.19999C0.342987 1.54285 1.66187 0.285706 3.32481 0.285706H78.7304C80.3933 0.285706 81.7122 1.54285 81.7696 3.19999V20.8C81.7122 22.4571 80.336 23.7143 78.673 23.7143Z" fill="black"/>
<path d="M78.9035 0.571429C80.2797 0.571429 81.4266 1.71429 81.4266 3.08571V20.9714C81.4266 22.3429 80.2797 23.4857 78.9035 23.4857H3.0965C1.72028 23.4286 0.630769 22.2857 0.573427 20.9143V3.08571C0.573427 1.71429 1.72028 0.571429 3.0965 0.571429H78.9035ZM78.9608 0H3.03916C1.37622 0 0.0573427 1.31429 0 2.97143V20.9714C0 22.6286 1.37622 24 3.03916 24H78.9608C80.6238 24 81.9426 22.6857 82 21.0286V2.97143C81.9426 1.31429 80.6238 0 78.9608 0Z" fill="#A6A6A6"/>
<path d="M29.4743 6.85716C29.4743 7.31431 29.3596 7.71431 29.0729 8.00002C28.7288 8.34288 28.3274 8.51431 27.8113 8.51431C27.2952 8.51431 26.8938 8.34288 26.5498 8.00002C26.2057 7.65716 26.0337 7.25716 26.0337 6.74288C26.0337 6.22859 26.2057 5.82859 26.5498 5.48574C26.8938 5.14288 27.2952 4.97145 27.8113 4.97145C28.0407 4.97145 28.2701 5.02859 28.4994 5.14288C28.7288 5.25716 28.9008 5.37145 29.0155 5.54288L28.7288 5.82859C28.4994 5.54288 28.2127 5.42859 27.8113 5.42859C27.4673 5.42859 27.1232 5.54288 26.8938 5.82859C26.6071 6.05716 26.4924 6.40002 26.4924 6.80002C26.4924 7.20002 26.6071 7.54288 26.8938 7.77145C27.1805 8.00002 27.4673 8.17145 27.8113 8.17145C28.2127 8.17145 28.4994 8.05716 28.7861 7.77145C28.9582 7.60002 29.0729 7.37145 29.0729 7.08573H27.8113V6.62859H29.4743V6.85716ZM32.0547 5.42859H30.5064V6.51431H31.94V6.91431H30.5064V8.00002H32.0547V8.45716H30.105V5.02859H32.112L32.0547 5.42859ZM33.8896 8.40002H33.4309V5.42859H32.4561V5.02859H34.8071V5.42859H33.8323V8.40002H33.8896ZM36.5274 8.40002V5.02859H36.9861V8.40002H36.5274ZM38.8784 8.40002H38.4197V5.42859H37.4449V5.02859H39.7386V5.42859H38.7638L38.8784 8.40002ZM44.2687 7.94288C43.9246 8.28573 43.5232 8.45716 43.0071 8.45716C42.491 8.45716 42.0896 8.28573 41.7456 7.94288C41.4015 7.60002 41.2295 7.20002 41.2295 6.68573C41.2295 6.17145 41.4015 5.77145 41.7456 5.42859C42.0896 5.08573 42.491 4.91431 43.0071 4.91431C43.5232 4.91431 43.9246 5.08573 44.2687 5.42859C44.6127 5.77145 44.7847 6.17145 44.7847 6.68573C44.7847 7.20002 44.6127 7.65716 44.2687 7.94288ZM42.0896 7.71431C42.319 7.94288 42.6631 8.11431 43.0071 8.11431C43.3512 8.11431 43.6952 8.00002 43.9246 7.71431C44.154 7.48573 44.326 7.14288 44.326 6.74288C44.326 6.34288 44.2113 6.00002 43.9246 5.77145C43.6952 5.54288 43.3512 5.37145 43.0071 5.37145C42.6631 5.37145 42.319 5.48574 42.0896 5.77145C41.8603 6.00002 41.6882 6.34288 41.6882 6.74288C41.6882 7.14288 41.8029 7.48573 42.0896 7.71431ZM45.3582 8.40002V5.02859H45.8742L47.5372 7.65716V5.02859H47.9959V8.40002H47.5372L45.7596 5.65716V8.40002H45.3582Z" fill="#FEFEFE"/>
<path d="M29.5316 6.85715C29.5316 7.08572 29.4742 7.31429 29.4169 7.48572C29.3596 7.65715 29.2449 7.88572 29.0729 8.00001C28.9008 8.17144 28.7288 8.28572 28.4994 8.40001C28.2701 8.51429 28.0407 8.51429 27.8113 8.51429C27.5819 8.51429 27.2952 8.45715 27.1232 8.40001C26.8938 8.28572 26.7218 8.17144 26.5498 8.00001C26.3777 7.82858 26.2631 7.65715 26.1484 7.42858C26.0337 7.20001 26.0337 6.97144 26.0337 6.74286C26.0337 6.51429 26.091 6.22858 26.1484 6.05715C26.2057 5.88572 26.3777 5.65715 26.5498 5.48572C26.7218 5.31429 26.8938 5.20001 27.1232 5.08572C27.3526 4.97144 27.5819 4.97144 27.8113 4.97144C27.926 4.97144 28.0407 4.97144 28.1554 5.02858C28.2701 5.02858 28.3847 5.08572 28.4994 5.14286C28.6141 5.20001 28.7288 5.25715 28.7861 5.31429C28.9008 5.37144 28.9582 5.42858 29.0155 5.54286V5.60001L28.6715 5.94286V5.88572C28.5568 5.77144 28.4421 5.65715 28.3274 5.60001C28.2127 5.54286 28.0407 5.48572 27.8113 5.48572C27.6393 5.48572 27.4673 5.54286 27.2952 5.60001C27.1805 5.65715 27.0085 5.77144 26.9512 5.88572C26.8365 6.00001 26.7218 6.11429 26.6645 6.28572C26.6071 6.45715 26.5498 6.62858 26.5498 6.80001C26.5498 6.97144 26.5498 7.20001 26.6645 7.31429C26.7218 7.48572 26.8365 7.60001 26.9512 7.71429C27.0659 7.82858 27.2379 7.94286 27.3526 8.00001C27.4673 8.05715 27.6393 8.11429 27.8113 8.11429C27.9833 8.11429 28.1554 8.05715 28.3274 8.00001C28.4994 7.94286 28.6141 7.82858 28.7288 7.71429C28.7861 7.65715 28.9008 7.54286 28.9008 7.42858C28.9582 7.31429 28.9582 7.25715 28.9582 7.14286H27.6966V6.57144H29.4743V6.85715H29.5316ZM29.3022 7.42858C29.3596 7.25715 29.4169 7.02858 29.4169 6.80001V6.62858H27.8687V6.97144H29.1302V7.02858C29.1302 7.14286 29.1302 7.31429 29.0729 7.42858C29.0155 7.54286 28.9582 7.65715 28.8435 7.77144C28.6715 7.94286 28.5568 8.00001 28.3847 8.11429C28.2127 8.17144 28.0407 8.22858 27.8687 8.22858C27.6966 8.22858 27.5246 8.17144 27.3526 8.11429C27.1805 8.05715 27.0659 7.94286 26.8938 7.82858C26.7791 7.71429 26.6645 7.60001 26.6071 7.42858C26.5498 7.25715 26.4924 7.08572 26.4924 6.85715C26.4924 6.62858 26.5498 6.45715 26.6071 6.28572C26.6645 6.11429 26.7791 6.00001 26.8938 5.88572C27.0085 5.77144 27.1232 5.65715 27.2952 5.60001C27.4673 5.54286 27.6393 5.48572 27.8113 5.48572C28.0407 5.48572 28.2127 5.54286 28.3274 5.60001C28.4421 5.65715 28.6141 5.77144 28.6715 5.88572L28.9008 5.65715C28.8435 5.60001 28.7861 5.54286 28.7288 5.48572C28.6715 5.42858 28.5568 5.37144 28.4421 5.31429C28.3274 5.25715 28.2127 5.20001 28.098 5.20001C27.9833 5.14286 27.8687 5.14286 27.754 5.14286C27.5246 5.14286 27.2952 5.20001 27.0659 5.25715C26.8938 5.31429 26.6645 5.48572 26.5498 5.60001C26.3777 5.77144 26.2631 5.94286 26.2057 6.11429C26.1484 6.28572 26.091 6.51429 26.091 6.80001C26.091 7.02858 26.1484 7.25715 26.2057 7.48572C26.2631 7.65715 26.4351 7.88572 26.5498 8.00001C26.7218 8.17144 26.8938 8.28572 27.0659 8.34286C27.2379 8.40001 27.4673 8.45715 27.754 8.45715C27.9833 8.45715 28.2127 8.40001 28.4421 8.34286C28.6141 8.28572 28.8435 8.11429 28.9582 8.00001C29.1302 7.77144 29.2449 7.65715 29.3022 7.42858ZM32.0547 5.48572H30.5638V6.45715H31.9973V6.97144H30.5638V7.94286H32.112V8.51429H30.0477C30.0477 7.37144 30.0477 6.17144 30.0477 5.02858H32.112L32.0547 5.48572ZM30.5064 5.37144H31.9973V5.08572H30.105V8.34286H31.94V8.00001H30.3917V6.85715H31.8253V6.57144H30.3917L30.5064 5.37144ZM33.8896 8.45715H33.3736V5.48572H32.3987V4.97144H34.8645V5.48572H33.8896V8.45715ZM33.4882 8.34286H33.8323V5.37144H34.8071V5.08572H32.5708V5.37144H33.5456V8.34286H33.4882ZM36.4701 8.40001V4.97144H37.0435C37.0435 6.11429 37.0435 7.31429 37.0435 8.45715L36.4701 8.40001ZM36.5847 5.08572V8.34286H36.9288V5.08572H36.5847ZM38.8784 8.45715H38.3624V5.48572H37.3875V4.97144H39.7959V5.48572H38.8211V8.34286V8.45715H38.8784ZM38.477 8.34286H38.7638V5.37144H39.7386V5.08572H37.5596V5.37144H38.5344V8.34286H38.477ZM44.2687 8.00001C44.0966 8.17144 43.9246 8.28572 43.6952 8.40001C43.4659 8.51429 43.2365 8.51429 43.0071 8.51429C42.7777 8.51429 42.491 8.45715 42.319 8.40001C42.0896 8.28572 41.9176 8.17144 41.7456 8.00001C41.5736 7.82858 41.4589 7.65715 41.3442 7.42858C41.2295 7.20001 41.2295 6.97144 41.2295 6.74286C41.2295 6.51429 41.2868 6.22858 41.3442 6.05715C41.4589 5.82858 41.5736 5.65715 41.7456 5.48572C41.9176 5.31429 42.0896 5.20001 42.319 5.08572C42.5484 4.97144 42.7777 4.97144 43.0071 4.97144C43.2365 4.97144 43.5232 5.02858 43.6952 5.08572C43.9246 5.20001 44.0966 5.31429 44.2687 5.48572C44.4407 5.65715 44.5554 5.82858 44.6701 6.05715C44.7847 6.28572 44.7847 6.51429 44.7847 6.74286C44.7847 6.97144 44.7274 7.25715 44.6701 7.42858C44.6127 7.65715 44.4407 7.82858 44.2687 8.00001ZM43.6952 8.28572C43.8673 8.22858 44.0966 8.05715 44.2113 7.94286C44.3833 7.77144 44.498 7.60001 44.5554 7.42858C44.6127 7.25715 44.6701 7.02858 44.6701 6.74286C44.6701 6.45715 44.6127 6.28572 44.5554 6.05715C44.498 5.88572 44.326 5.65715 44.2113 5.54286C44.0393 5.37144 43.8673 5.25715 43.6952 5.20001C43.5232 5.14286 43.2938 5.08572 43.0071 5.08572C42.7777 5.08572 42.5484 5.14286 42.319 5.20001C42.147 5.25715 41.9176 5.42858 41.8029 5.54286C41.6309 5.71429 41.5162 5.88572 41.4589 6.05715C41.3442 6.28572 41.2868 6.45715 41.2868 6.74286C41.2868 6.97144 41.3442 7.20001 41.4015 7.42858C41.4589 7.60001 41.6309 7.82858 41.7456 7.94286C41.9176 8.11429 42.0896 8.22858 42.2617 8.28572C42.4337 8.34286 42.6631 8.40001 42.9498 8.40001C43.2365 8.40001 43.4659 8.40001 43.6952 8.28572ZM42.147 7.65715C42.2617 7.77144 42.3763 7.88572 42.5484 7.94286C42.7204 8.00001 42.8351 8.00001 43.0071 8.00001C43.1791 8.00001 43.3512 7.94286 43.5232 7.88572C43.6379 7.82858 43.8099 7.71429 43.8673 7.60001C43.9819 7.48572 44.0966 7.37144 44.154 7.20001C44.2113 7.02858 44.2687 6.85715 44.2687 6.68572C44.2687 6.51429 44.2113 6.28572 44.154 6.17144C44.0966 6.00001 43.9819 5.88572 43.8673 5.77144C43.7526 5.65715 43.6379 5.54286 43.4659 5.48572C43.3512 5.42858 43.1791 5.37144 43.0071 5.37144C42.8351 5.37144 42.6631 5.42858 42.491 5.48572C42.3763 5.54286 42.2043 5.65715 42.147 5.77144C42.0323 5.88572 41.9176 6.05715 41.8603 6.17144C41.8029 6.34286 41.7456 6.45715 41.7456 6.68572C41.7456 6.85715 41.8029 7.08572 41.8603 7.20001C41.9176 7.42858 42.0323 7.54286 42.147 7.65715ZM42.491 8.05715C42.319 8.00001 42.147 7.88572 42.0323 7.77144C41.9176 7.65715 41.8029 7.48572 41.7456 7.37144C41.6882 7.20001 41.6309 7.02858 41.6309 6.80001C41.6309 6.62858 41.6882 6.40001 41.7456 6.28572C41.8029 6.11429 41.9176 5.94286 42.0323 5.82858C42.147 5.71429 42.2617 5.60001 42.4337 5.54286C42.6057 5.48572 42.7777 5.42858 42.9498 5.42858C43.1218 5.42858 43.2938 5.48572 43.4659 5.54286C43.6379 5.60001 43.8099 5.71429 43.9246 5.82858C44.0393 5.94286 44.154 6.05715 44.2113 6.22858C44.2687 6.40001 44.326 6.57144 44.326 6.80001C44.326 6.97144 44.2687 7.20001 44.2113 7.31429C44.154 7.48572 44.0393 7.65715 43.9246 7.77144C43.8099 7.88572 43.6952 8.00001 43.5232 8.05715C43.3512 8.11429 43.1791 8.17144 43.0071 8.17144C42.8351 8.11429 42.6631 8.11429 42.491 8.05715ZM45.3008 8.40001V4.97144H45.8742L47.4225 7.48572V4.97144H47.9959C47.9959 6.11429 47.9959 7.31429 47.9959 8.45715H47.4798L45.8169 5.82858V8.45715L45.3008 8.40001ZM45.4155 5.08572V8.34286H45.7022V5.48572L47.5372 8.40001H47.8812V5.08572H47.5945V7.88572L45.8742 5.08572H45.4155Z" fill="#FEFEFE"/>
<path d="M41.1147 13.3714C39.7385 13.3714 38.7064 14.4 38.7064 15.7714C38.7064 17.1429 39.7959 18.1714 41.1147 18.1714C42.491 18.1714 43.5231 17.1429 43.5231 15.7714C43.5805 14.3429 42.491 13.3714 41.1147 13.3714ZM41.1147 17.2C40.3693 17.2 39.7385 16.5714 39.7385 15.7143C39.7385 14.8571 40.3693 14.2286 41.1147 14.2286C41.8602 14.2286 42.491 14.8 42.491 15.7143C42.491 16.5714 41.8602 17.2 41.1147 17.2ZM35.8966 13.3714C34.5203 13.3714 33.4882 14.4 33.4882 15.7714C33.4882 17.1429 34.5777 18.1714 35.8966 18.1714C37.2728 18.1714 38.305 17.1429 38.305 15.7714C38.305 14.3429 37.2154 13.3714 35.8966 13.3714ZM35.8966 17.2C35.1511 17.2 34.5203 16.5714 34.5203 15.7143C34.5203 14.8571 35.1511 14.2286 35.8966 14.2286C36.642 14.2286 37.2728 14.8 37.2728 15.7143C37.2155 16.5714 36.642 17.2 35.8966 17.2ZM29.5889 14.1143V15.1429H31.9973C31.9399 15.7143 31.7106 16.1714 31.4238 16.4571C31.0798 16.8 30.5064 17.2 29.5889 17.2C28.098 17.1429 26.9511 15.9429 26.9511 14.4571C26.9511 12.9714 28.1553 11.7714 29.5889 11.7714C30.3917 11.7714 31.0224 12.1143 31.4812 12.5143L32.2266 11.7714C31.5959 11.2 30.7931 10.7429 29.7036 10.7429C27.6966 10.7429 25.9189 12.4571 25.9189 14.4571C25.9189 16.4571 27.6392 18.1714 29.7036 18.1714C30.8504 18.1714 31.5959 17.8286 32.284 17.0857C32.9721 16.4 33.2015 15.4286 33.2015 14.7429C33.2015 14.5143 33.2015 14.2857 33.1441 14.1143H29.5889ZM55.2784 14.9143C55.049 14.3429 54.4756 13.3714 53.2141 13.3714C51.9525 13.3714 50.9777 14.3429 50.9777 15.7714C50.9777 17.1429 52.0099 18.1714 53.3287 18.1714C54.4182 18.1714 55.1064 17.4857 55.2784 17.0857L54.4756 16.5143C54.1889 16.9143 53.8448 17.2 53.2714 17.2C52.698 17.2 52.3539 16.9714 52.0672 16.4571L55.2784 15.0857V14.9143ZM52.0099 15.7143C52.0099 14.8 52.7553 14.2857 53.2714 14.2857C53.6728 14.2857 54.0742 14.5143 54.1889 14.8L52.0099 15.7143ZM49.3148 18H50.4043V10.9714H49.3148V18ZM47.6518 13.8857C47.3651 13.6 46.9064 13.3143 46.3329 13.3143C45.1287 13.3143 44.0392 14.4 44.0392 15.7143C44.0392 17.0286 45.1287 18.0571 46.3329 18.0571C46.9064 18.0571 47.3651 17.7714 47.5945 17.4857H47.6518V17.8286C47.6518 18.7429 47.1357 19.2571 46.3329 19.2571C45.7022 19.2571 45.2434 18.8 45.1287 18.4L44.2686 18.8571C44.5553 19.4857 45.2434 20.2857 46.3903 20.2857C47.6518 20.2857 48.6266 19.5429 48.6266 17.8286V13.5429H47.5945V13.8857H47.6518ZM46.3903 17.2C45.6448 17.2 45.0141 16.5714 45.0141 15.7143C45.0141 14.8571 45.6448 14.2286 46.3903 14.2286C47.1357 14.2286 47.7092 14.8571 47.7092 15.7143C47.7092 16.5714 47.1357 17.2 46.3903 17.2ZM60.2099 10.9714H57.6868V18H58.7763V15.3714H60.2672C61.4714 15.3714 62.5609 14.5143 62.5609 13.2C62.5609 11.8857 61.3567 10.9714 60.2099 10.9714ZM60.2672 14.3429H58.719V11.9429H60.2672C61.07 11.9429 61.5287 12.6286 61.5287 13.1429C61.4141 13.7143 60.9553 14.3429 60.2672 14.3429ZM66.7469 13.3143C65.9441 13.3143 65.1413 13.6571 64.8546 14.4L65.8294 14.8C66.0588 14.4 66.4029 14.2857 66.8043 14.2857C67.3777 14.2857 67.8938 14.6286 67.9511 15.2V15.2571C67.7791 15.1429 67.3203 14.9714 66.8616 14.9714C65.8294 14.9714 64.8546 15.5429 64.8546 16.5714C64.8546 17.5429 65.7148 18.1714 66.6322 18.1714C67.3777 18.1714 67.7217 17.8286 68.0085 17.4857H68.0658V18.0571H69.098V15.3714C68.8686 14.0571 67.8938 13.3143 66.7469 13.3143ZM66.6322 17.2C66.2882 17.2 65.7721 17.0286 65.7721 16.5714C65.7721 16 66.4029 15.8286 66.919 15.8286C67.3777 15.8286 67.6071 15.9429 67.8938 16.0571C67.7791 16.7429 67.2057 17.2 66.6322 17.2ZM72.5385 13.4857L71.3343 16.5143H71.277L70.0155 13.4857H68.8686L70.7036 17.7714L69.6141 20.1143H70.7036L73.5707 13.4857H72.5385ZM63.077 18H64.1665V10.9714H63.077V18Z" fill="#FEFEFE"/>
<path d="M8.54407 5.31433C8.37204 5.48576 8.3147 5.77147 8.3147 6.11433V18.5715C8.3147 18.9143 8.42938 19.2 8.60141 19.3715L8.65875 19.4286L15.6546 12.4572V12.3429L8.54407 5.31433Z" fill="#FEFEFE"/>
<path d="M18.2922 14.8L15.9985 12.5143V12.3429L18.2922 10.0572L18.3496 10.1143L21.102 11.7143C21.9048 12.1715 21.9048 12.9143 21.102 13.3715L18.2922 14.8Z" fill="#FEFEFE"/>
<path d="M18.1776 14.9143L15.7692 12.5715L8.71606 19.6C9.00278 19.8858 9.40418 19.8858 9.92026 19.6572L18.1776 14.9143Z" fill="#FEFEFE"/>
<path d="M18.1776 9.88576L9.92026 5.20005C9.40418 4.91434 9.00278 4.97148 8.71606 5.25719L15.7692 12.2286L18.1776 9.88576Z" fill="#FEFEFE"/>
<path d="M17.9474 14.6857L9.74741 19.2572C9.28867 19.5429 8.88727 19.4857 8.60056 19.2572L8.54321 19.3143L8.60056 19.3714C8.88727 19.6 9.28867 19.6572 9.74741 19.3714L17.9474 14.6857Z" fill="#FEFEFE" fill-opacity="0.2"/>
<path d="M8.54407 19.2572C8.37204 19.0858 8.3147 18.8 8.3147 18.4572V18.5143C8.3147 18.8572 8.42938 19.1429 8.54407 19.2572ZM20.7581 13.0858L17.9483 14.6858L18.0056 14.7429L20.7581 13.0858C21.1595 12.9143 21.3315 12.6286 21.3315 12.3429C21.3315 12.6286 21.1021 12.8572 20.7581 13.0858Z" fill="#FEFEFE" fill-opacity="0.2"/>
</svg>
