<svg width="26" height="20" viewBox="0 0 26 20" fill="none" xmlns="http://www.w3.org/2000/svg">
<g clip-path="url(#clip0)">
<path d="M4.73632 19.95V18.65C4.78671 18.2 4.43399 17.85 3.98051 17.8C3.93012 17.8 3.93012 17.8 3.87973 17.8C3.57741 17.8 3.27508 17.9 3.12392 18.2C2.97275 17.95 2.72082 17.8 2.41849 17.8C2.16655 17.8 1.91462 17.9 1.81384 18.1V17.85H1.36035V19.95H1.81384V18.75C1.76345 18.5 1.965 18.25 2.26733 18.2H2.31772C2.62004 18.2 2.7712 18.4 2.7712 18.75V19.95H3.22469V18.75C3.17431 18.5 3.37586 18.25 3.67818 18.2H3.72857C4.03089 18.2 4.18206 18.4 4.18206 18.75V19.95H4.73632ZM11.6898 17.85H10.934V17.2H10.4301V17.85H9.97663V18.25H10.4301V19.2C10.4301 19.7 10.6317 20 11.1859 20C11.3875 20 11.589 19.95 11.7906 19.85L11.6394 19.45C11.5386 19.5 11.3875 19.55 11.2363 19.55C10.9844 19.55 10.934 19.4 10.934 19.2V18.25H11.6898V17.85ZM15.62 17.8C15.3681 17.8 15.1666 17.9 15.0658 18.1V17.85H14.6123V19.95H15.0658V18.75C15.0658 18.4 15.2169 18.2 15.5193 18.2C15.62 18.2 15.7208 18.2 15.8216 18.25L15.9728 17.8C15.872 17.8 15.7208 17.8 15.62 17.8ZM9.6743 18C9.42237 17.85 9.12004 17.75 8.81772 17.8C8.26345 17.8 7.91074 18.05 7.91074 18.45C7.91074 18.8 8.16268 19 8.66655 19.05L8.8681 19.1C9.12004 19.15 9.22082 19.2 9.22082 19.3C9.22082 19.4 9.06965 19.55 8.71694 19.55C8.465 19.55 8.21306 19.5 8.01151 19.35L7.80996 19.7C8.0619 19.9 8.41461 20 8.71694 19.95C9.32159 19.95 9.6743 19.65 9.6743 19.25C9.6743 18.85 9.37198 18.7 8.91849 18.6L8.71694 18.55C8.51539 18.55 8.36423 18.5 8.36423 18.35C8.36423 18.2 8.51539 18.1 8.76733 18.1C9.01927 18.1 9.22082 18.15 9.42237 18.3L9.6743 18ZM22.0697 17.8C21.8177 17.8 21.6162 17.9 21.5154 18.1V17.85H21.0619V19.95H21.5154V18.75C21.5154 18.4 21.6666 18.2 21.9689 18.2C22.0697 18.2 22.1704 18.2 22.2712 18.25L22.4224 17.8C22.3216 17.8 22.1704 17.8 22.0697 17.8ZM16.1239 18.9C16.1239 19.5 16.5774 20 17.1821 20C17.2324 20 17.2324 20 17.2828 20C17.5852 20 17.8371 19.9 18.0386 19.75L17.8371 19.4C17.6859 19.5 17.4844 19.6 17.2828 19.6C16.9301 19.55 16.6278 19.25 16.6782 18.85C16.7286 18.5 16.9805 18.25 17.2828 18.25C17.4844 18.25 17.6859 18.3 17.8371 18.45L18.0386 18.1C17.8371 17.95 17.5348 17.85 17.2828 17.85C16.6782 17.8 16.1743 18.25 16.1239 18.9C16.1239 18.85 16.1239 18.85 16.1239 18.9ZM20.4573 18.9V17.85H20.0038V18.1C19.8526 17.9 19.6007 17.8 19.3487 17.8C18.7441 17.85 18.2906 18.4 18.341 19C18.3914 19.55 18.7945 19.95 19.3487 20C19.6007 20 19.8526 19.9 20.0038 19.7V19.95H20.4573V18.9ZM18.7441 18.9C18.7441 18.55 19.0464 18.3 19.3991 18.3C19.7518 18.3 20.0038 18.6 20.0038 18.95C20.0038 19.3 19.7014 19.55 19.3487 19.55C18.996 19.55 18.7441 19.3 18.7441 18.9ZM13.1007 17.8C12.496 17.8 11.9921 18.3 11.9921 18.9C11.9921 19.5 12.496 20 13.1007 20C13.403 20 13.7557 19.9 13.9573 19.7L13.7557 19.35C13.6045 19.5 13.3526 19.55 13.151 19.55C12.8487 19.6 12.5464 19.35 12.496 19.05H14.1084C14.1084 19 14.1084 18.95 14.1084 18.9C14.1588 18.35 13.7557 17.85 13.2014 17.8C13.2014 17.8 13.151 17.8 13.1007 17.8ZM13.1007 18.2C13.403 18.2 13.6045 18.4 13.6549 18.7H12.5464C12.5968 18.4 12.8487 18.2 13.1007 18.2ZM24.7402 18.9V17H24.2867V18.1C24.1355 17.9 23.8836 17.8 23.6317 17.8C23.027 17.85 22.5735 18.4 22.6239 19C22.6743 19.55 23.0774 19.95 23.6317 20C23.8836 20 24.1355 19.9 24.2867 19.7V19.95H24.7402V18.9ZM23.027 18.9C23.027 18.55 23.3293 18.3 23.6821 18.3C24.0348 18.3 24.2867 18.6 24.2867 18.95C24.2867 19.3 23.9844 19.55 23.6317 19.55C23.279 19.55 22.9766 19.3 23.027 18.9ZM7.35648 18.9V17.85H6.90299V18.1C6.75182 17.9 6.49989 17.8 6.24795 17.8C5.6433 17.85 5.18981 18.4 5.2402 19C5.29058 19.55 5.69368 19.95 6.24795 20C6.49989 20 6.75182 19.9 6.90299 19.7V19.95H7.35648V18.9ZM5.6433 18.9C5.6433 18.55 5.94562 18.3 6.29834 18.3C6.65105 18.3 6.90299 18.6 6.90299 18.95C6.90299 19.3 6.60066 19.55 6.24795 19.55C5.94562 19.55 5.6433 19.3 5.6433 18.9Z" fill="white"/>
<path d="M16.5271 1.70001H9.52319V14.25H16.5271V1.70001Z" fill="white"/>
<path d="M9.92625 7.94998C9.92625 5.49998 11.0348 3.19998 12.9999 1.69998C9.52315 -1.00002 4.48439 -0.400021 1.71307 3.04998C-1.00786 6.49998 -0.403207 11.5 3.07354 14.25C5.99602 16.5 10.0774 16.5 12.9999 14.25C11.0348 12.75 9.92625 10.4 9.92625 7.94998Z" fill="white"/>
<path d="M25.9998 7.94998C25.9998 12.35 22.4222 15.9 17.9881 15.9C16.1742 15.9 14.461 15.3 13.0501 14.2C16.4765 11.5 17.0812 6.49998 14.3602 3.04998C13.9571 2.54998 13.5036 2.09998 12.9998 1.69998C16.4765 -1.00002 21.5656 -0.400021 24.2866 3.04998C25.3951 4.44998 25.9998 6.19998 25.9998 7.94998Z" fill="white"/>
</g>
<defs>
<clipPath id="clip0">
<rect width="26" height="20" fill="white"/>
</clipPath>
</defs>
</svg>
