<svg width="84" height="20" viewBox="0 0 84 20" fill="none" xmlns="http://www.w3.org/2000/svg">
<g clip-path="url(#clip0)">
<path d="M19.8526 16.5H17.2588V7.5H26.5367V16.5H23.9429V9.25H19.8027L19.8526 16.5ZM27.7837 9.8V18.75H30.178V15.7C30.9761 16.55 32.273 16.6 32.5723 16.6C34.817 16.6 36.2137 15.15 36.2137 13.1C36.2137 10.95 34.817 9.55 32.6222 9.55C32.0735 9.55 30.9761 9.65 30.0783 10.6H30.0284V9.8H27.7837ZM30.0783 13.05C30.0783 11.2 31.2255 10.85 31.9239 10.85C32.6222 10.85 33.7695 11.2 33.7695 13.05C33.7695 14.2 33.2707 15.25 31.9239 15.25C30.5272 15.25 30.0783 14.2 30.0783 13.05ZM42.1495 15.55C41.2517 16.35 40.4037 16.6 39.5058 16.6C36.9619 16.6 36.8621 14.7 36.8621 13.9V9.8H39.2564V13.6C39.2564 14.9 39.7054 15.3 40.6032 15.3C42.0997 15.3 42.1994 13.95 42.1994 13.5V9.8H44.5937V16.35H42.1994L42.1495 15.55ZM47.9358 13.6H49.3823C50.5296 13.6 50.7291 13.95 50.7291 14.35C50.7291 14.65 50.5795 15 49.3823 15H47.8859L47.9358 13.6ZM45.5415 9.8V16.35H50.2802C52.026 16.35 53.1733 16 53.1733 14.7C53.1733 13.65 52.5747 13.2 51.2778 13V12.95C52.1258 12.85 52.874 12.3 52.874 11.4C52.874 9.8 50.9785 9.8 50.2802 9.8H45.5415ZM47.9358 11.1H49.2327C49.931 11.1 50.4797 11.2 50.4797 11.75C50.4797 12.35 49.5818 12.35 49.1828 12.35H47.9358V11.1ZM56.1662 11.9C56.1662 10.95 57.2137 10.85 57.6127 10.85C57.8621 10.85 58.8597 10.85 58.9096 11.7V11.9C58.8597 12.55 58.2612 12.4 56.4654 12.65C55.0189 12.85 53.5225 13.2 53.5225 14.7C53.5225 15.25 53.7719 16.6 56.2659 16.6C57.2137 16.6 58.3111 16.35 58.9096 15.7H58.9595L59.159 16.35H61.6531V16.25C61.2042 16.15 61.1543 15.7 61.2042 15L61.2541 12C61.2541 11.25 61.2042 9.55 57.6127 9.55C56.7647 9.55 53.9714 9.65 53.8716 11.9C53.9215 11.9 56.1662 11.9 56.1662 11.9ZM58.9595 13.65C58.9595 14.95 57.8122 15.3 57.2137 15.3C56.7647 15.3 56.0165 15.15 56.0165 14.55C56.0165 13.8 56.9144 13.65 57.4132 13.6C58.3111 13.45 58.2612 13.5 58.9595 13.25C58.9595 13.2 58.9595 13.65 58.9595 13.65ZM61.5533 11.1V9.8H69.1852V11.1H66.5415V16.35H64.1472V11.1H61.5533Z" fill="white"/>
<path d="M0 16.35H5.93587V10.45H0V16.35Z" fill="white"/>
<path d="M12.0713 4.39999V13.25H10.8741C10.3254 8.89999 7.58195 6.14999 3.14252 5.59999V4.39999H12.0713ZM0 1.29999V8.64999H1.5962C5.73634 8.64999 7.83135 10.75 7.83135 14.85V16.4H15.2637V1.29999H0Z" fill="white"/>
<path d="M76.1686 14.6V16.3H69.6841C69.734 15.65 69.9834 15.05 70.3325 14.45C70.6817 13.85 71.38 13.1 72.4275 12.15C73.2755 11.35 73.7743 10.85 73.9739 10.55C74.2233 10.15 74.3729 9.79999 74.3729 9.39999C74.3729 8.99999 74.2731 8.64999 74.0237 8.44999C73.8242 8.24999 73.4751 8.09999 73.1259 8.09999C72.7268 8.09999 72.4276 8.19999 72.228 8.44999C72.0285 8.69999 71.8789 9.04999 71.829 9.59999L69.9834 9.39999C70.0831 8.39999 70.4323 7.64999 71.0309 7.19999C71.6294 6.74999 72.3278 6.54999 73.1758 6.54999C74.1235 6.54999 74.8717 6.79999 75.4204 7.29999C75.9691 7.79999 76.2185 8.44999 76.2185 9.19999C76.2185 9.64999 76.1188 10.05 75.9691 10.45C75.8195 10.85 75.5701 11.25 75.2209 11.7C75.0214 12 74.5724 12.4 74.0237 12.95C73.4252 13.5 73.076 13.85 72.9264 14C72.7767 14.15 72.6271 14.35 72.5273 14.5H76.1686V14.6Z" fill="white"/>
<path d="M81.007 16.3V14.35H77.0664V12.75L81.2564 6.59998H82.8027V12.75H83.9999V14.4H82.8027V16.3H81.007ZM81.007 12.75V9.44998L78.8122 12.75H81.007Z" fill="white"/>
</g>
<defs>
<clipPath id="clip0">
<rect width="84" height="20" fill="white"/>
</clipPath>
</defs>
</svg>
