<svg width="20" height="20" viewBox="0 0 20 20" fill="none" xmlns="http://www.w3.org/2000/svg">
<path d="M12.4998 4.16665V3.33331H10.8332V12.5C10.8332 13.8788 9.71196 15 8.33317 15C6.95439 15 5.83317 13.8788 5.83317 12.5C5.83317 11.1212 6.95439 9.99998 8.33317 9.99998H9.1665V8.33331H8.33317C6.0356 8.33331 4.1665 10.2024 4.1665 12.5C4.1665 14.7975 6.0356 16.6666 8.33317 16.6666C10.6307 16.6666 12.4998 14.7975 12.4998 12.5V7.49204C13.1973 8.01756 14.0611 8.33331 14.9998 8.33331H15.8332V6.66665H14.9998C13.6211 6.66665 12.4998 5.54543 12.4998 4.16665Z" fill="white"/>
<path d="M0 20H20V0H0V20ZM1.66667 1.66667H18.3333V18.3333H1.66667V1.66667Z" fill="white"/>
</svg>
