<svg width="20" height="20" viewBox="0 0 20 20" fill="none" xmlns="http://www.w3.org/2000/svg">
<g clip-path="url(#clip0)">
<path d="M19.2959 11.5775C19.8926 6.55496 19.0092 3.38413 17.4159 1.94996L17.4167 1.94913C14.8451 -0.500041 6.16007 -0.862541 3.0834 2.05913C1.70173 3.48829 1.21507 5.58579 1.16173 8.18246C1.1084 10.78 1.04507 15.6458 5.57923 16.9658H5.5834L5.57923 18.9816C5.57923 18.9816 5.5484 19.7983 6.07007 19.9625C6.66673 20.1558 6.93673 19.7766 8.79257 17.56C11.8959 17.8291 14.2792 17.2125 14.5501 17.1225C15.1767 16.9125 18.7226 16.4433 19.2959 11.5775ZM9.0984 16.1416C9.0984 16.1416 7.13423 18.5908 6.5234 19.2266C6.3234 19.4333 6.10423 19.4141 6.10757 19.0041C6.10757 18.735 6.12257 15.6575 6.12257 15.6575C2.2784 14.5558 2.50507 10.4125 2.54673 8.24496C2.5884 6.07663 2.98507 4.30079 4.15507 3.10496C6.85423 0.574126 14.4684 1.13996 16.4084 2.96329C18.7801 5.06579 17.9359 11.0058 17.9409 11.2083C17.4534 15.27 14.5801 15.5275 14.0517 15.7033C13.8259 15.7783 11.7301 16.3175 9.0984 16.1416Z" fill="white"/>
<path d="M10.1852 3.58081C9.86437 3.58081 9.86437 4.08081 10.1852 4.08498C12.6744 4.10414 14.7244 5.83914 14.7469 9.02164C14.7469 9.35748 15.2385 9.35331 15.2344 9.01748H15.2335C15.2069 5.58831 12.9685 3.59998 10.1852 3.58081Z" fill="white"/>
<path d="M13.4592 8.49414C13.4517 8.8258 13.9425 8.84164 13.9467 8.5058C13.9875 6.61497 12.8217 5.05747 10.6309 4.8933C10.31 4.86997 10.2767 5.37414 10.5967 5.39747C12.4967 5.54164 13.4975 6.8383 13.4592 8.49414Z" fill="white"/>
<path d="M12.9343 10.6449C12.5226 10.4066 12.1034 10.5549 11.9301 10.7891L11.5676 11.2583C11.3834 11.4966 11.0393 11.4649 11.0393 11.4649C8.5276 10.8008 7.85593 8.17244 7.85593 8.17244C7.85593 8.17244 7.8251 7.81661 8.0551 7.62578L8.50843 7.25078C8.7351 7.07078 8.87843 6.63744 8.6476 6.21161C8.03093 5.09744 7.61676 4.71328 7.40593 4.41828C7.18426 4.14078 6.85093 4.07828 6.50426 4.26578H6.49676C5.77593 4.68744 4.98676 5.47661 5.23926 6.28911C5.6701 7.14578 6.46176 9.87661 8.9851 11.9399C10.1709 12.9158 12.0476 13.9158 12.8443 14.1466L12.8518 14.1583C13.6368 14.4199 14.4001 13.5999 14.8076 12.8574V12.8516C14.9884 12.4924 14.9284 12.1524 14.6643 11.9299C14.1959 11.4733 13.4893 10.9691 12.9343 10.6449Z" fill="white"/>
<path d="M10.9741 6.75323C11.775 6.7999 12.1633 7.21823 12.205 8.0774C12.22 8.41323 12.7075 8.3899 12.6925 8.05407C12.6391 6.9324 12.0541 6.3074 11.0008 6.24907C10.68 6.2299 10.65 6.73407 10.9741 6.75323Z" fill="white"/>
</g>
<defs>
<clipPath id="clip0">
<rect width="20" height="20" fill="white"/>
</clipPath>
</defs>
</svg>
