<svg width="40" height="14" viewBox="0 0 40 14" fill="none" xmlns="http://www.w3.org/2000/svg">
<path d="M17.3501 13.3H14.1001L16.1001 0.75H19.3501L17.3501 13.3Z" fill="white"/>
<path d="M29.1001 1.05C28.1501 0.7 27.2001 0.5 26.2001 0.5C23.0001 0.5 20.7501 2.2 20.7501 4.65C20.7501 6.45 22.3501 7.45 23.6001 8.05C24.8501 8.65 25.3001 9.05 25.3001 9.6C25.3001 10.45 24.3001 10.85 23.3501 10.85C22.3001 10.9 21.2501 10.65 20.3001 10.2L19.8001 10L19.3501 12.8C20.5001 13.25 21.7501 13.45 22.9501 13.45C26.3501 13.45 28.5501 11.75 28.6001 9.15C28.6001 7.7 27.7501 6.65 25.9001 5.75C24.7501 5.2 24.0501 4.8 24.0501 4.2C24.0501 3.6 24.6501 3.1 25.9001 3.1C26.7501 3.1 27.5501 3.25 28.3001 3.6L28.6001 3.75L29.1001 1.05Z" fill="white"/>
<path d="M33.3999 8.85002L34.6999 5.35002C34.6999 5.35002 34.9499 4.60002 35.0999 4.15002L35.2999 5.25002C35.2999 5.25002 35.8999 8.25002 36.0499 8.85002H33.3999ZM37.3999 0.750016H34.8999C34.1499 0.650016 33.4499 1.10002 33.1999 1.80002L28.3999 13.3H31.7999L32.4999 11.4H36.6499C36.7499 11.85 37.0499 13.3 37.0499 13.3H40.0499L37.3999 0.750016Z" fill="white"/>
<path d="M11.3999 0.75L8.2499 9.3L7.8999 7.55C7.0999 5.3 5.4999 3.45 3.3999 2.3L6.2999 13.25H9.7499L14.8499 0.75H11.3999Z" fill="white"/>
<path d="M5.25 0.75H0.05L0 1C4.05 2.05 6.75 4.55 7.85 7.55L6.75 1.8C6.55 1 6 0.8 5.25 0.75Z" fill="white"/>
</svg>
